<?xml version="1.0" ?><svg viewBox="0 0 32 32" xmlns="http://www.w3.org/2000/svg"><defs><style>.cls-1{fill:#77acf1;}.cls-2{fill:#04009a;}</style></defs><g data-name="7. Suprised Box" id="_7._Suprised_Box"><path class="cls-1" d="M13,15h6a0,0,0,0,1,0,0v3.78A1.22,1.22,0,0,1,17.78,20H14.22A1.22,1.22,0,0,1,13,18.78V15A0,0,0,0,1,13,15Z"/><path class="cls-2" d="M29.71,10.29a1,1,0,0,0-1.42,0L24.59,14H7.41l-3.7-3.71a1,1,0,0,0-1.42,1.42L6,15.41V29a3,3,0,0,0,3,3H23a3,3,0,0,0,3-3V15.41l3.71-3.7A1,1,0,0,0,29.71,10.29ZM24,29a1,1,0,0,1-1,1H9a1,1,0,0,1-1-1V16H24Z"/><path class="cls-2" d="M13,28H11a1,1,0,0,1,0-2h2a1,1,0,0,1,0,2Z"/><path class="cls-2" d="M9,10a1,1,0,0,1-.71-.29l-2-2A1,1,0,0,1,7.71,6.29l2,2a1,1,0,0,1,0,1.42A1,1,0,0,1,9,10Z"/><path class="cls-2" d="M23,10a1,1,0,0,1-.71-.29,1,1,0,0,1,0-1.42l2-2a1,1,0,1,1,1.42,1.42l-2,2A1,1,0,0,1,23,10Z"/><path class="cls-1" d="M22,2.83v.5a2.82,2.82,0,0,1-.3,1.27h0a11.34,11.34,0,0,1-5.1,5.1L16,10l-.6-.3a11.34,11.34,0,0,1-5.1-5.1h0A2.82,2.82,0,0,1,10,3.33v-.5A2.83,2.83,0,0,1,12.83,0h0a2.83,2.83,0,0,1,2,.83L16,2,17.17.83a2.83,2.83,0,0,1,2-.83h0A2.83,2.83,0,0,1,22,2.83Z"/></g></svg>