<?xml version="1.0" ?><svg viewBox="0 0 32 32" xmlns="http://www.w3.org/2000/svg"><defs><style>.cls-1{fill:#77acf1;}.cls-2{fill:#04009a;}</style></defs><g data-name="36. Search Box" id="_36._Search_Box"><path class="cls-1" d="M11,7h4a0,0,0,0,1,0,0v3a1,1,0,0,1-1,1H12a1,1,0,0,1-1-1V7A0,0,0,0,1,11,7Z"/><path class="cls-2" d="M17,20H9a3,3,0,0,1-3-3V9A3,3,0,0,1,9,6h8a3,3,0,0,1,3,3v8A3,3,0,0,1,17,20ZM9,8A1,1,0,0,0,8,9v8a1,1,0,0,0,1,1h8a1,1,0,0,0,1-1V9a1,1,0,0,0-1-1Z"/><path class="cls-2" d="M31.09,26.67l-7-7a13,13,0,1,0-4.42,4.42l7,7a3.09,3.09,0,0,0,2.21.91,3.13,3.13,0,0,0,2.21-5.33ZM2,13A11,11,0,1,1,13,24,11,11,0,0,1,2,13ZM28.88,30a1.11,1.11,0,0,1-.79-.33l-6.73-6.73a13.1,13.1,0,0,0,1.58-1.58l6.73,6.73a1.1,1.1,0,0,1,.33.79A1.12,1.12,0,0,1,28.88,30Z"/></g></svg>