<?xml version="1.0" ?><svg viewBox="0 0 32 32" xmlns="http://www.w3.org/2000/svg"><defs><style>.cls-1{fill:#04009a;}.cls-2{fill:#77acf1;}</style></defs><g data-name="11. Website" id="_11._Website"><path class="cls-1" d="M29,0H3A3,3,0,0,0,0,3V29a3,3,0,0,0,3,3H29a3,3,0,0,0,3-3V3A3,3,0,0,0,29,0ZM2,3A1,1,0,0,1,3,2H29a1,1,0,0,1,1,1V6H2ZM30,29a1,1,0,0,1-1,1H3a1,1,0,0,1-1-1V8H30Z"/><path class="cls-2" d="M6,21a1,1,0,0,1-.71-.29l-1-1a1,1,0,0,1,0-1.42l1-1a1,1,0,0,1,1.42,1.42l-.3.29.3.29a1,1,0,0,1,0,1.42A1,1,0,0,1,6,21Z"/><path class="cls-2" d="M26,21a1,1,0,0,1-.71-.29,1,1,0,0,1,0-1.42l.3-.29-.3-.29a1,1,0,0,1,1.42-1.42l1,1a1,1,0,0,1,0,1.42l-1,1A1,1,0,0,1,26,21Z"/><path class="cls-2" d="M14,13h4a0,0,0,0,1,0,0v3.18a.82.82,0,0,1-.82.82H14.82a.82.82,0,0,1-.82-.82V13A0,0,0,0,1,14,13Z"/><path class="cls-1" d="M20.29,26H11.71A2.72,2.72,0,0,1,9,23.29V14.71A2.72,2.72,0,0,1,11.71,12h8.58A2.72,2.72,0,0,1,23,14.71v8.58A2.72,2.72,0,0,1,20.29,26ZM11.71,14a.71.71,0,0,0-.71.71v8.58a.71.71,0,0,0,.71.71h8.58a.71.71,0,0,0,.71-.71V14.71a.71.71,0,0,0-.71-.71Z"/><path class="cls-1" d="M15,22H14a1,1,0,0,1,0-2h1a1,1,0,0,1,0,2Z"/></g></svg>