<?xml version="1.0" ?><svg viewBox="0 0 32 32" xmlns="http://www.w3.org/2000/svg"><defs><style>.cls-1{fill:#77acf1;}.cls-2{fill:#04009a;}</style></defs><g data-name="10. Delivery Way" id="_10._Delivery_Way"><path class="cls-1" d="M5,19H9a0,0,0,0,1,0,0v3a1,1,0,0,1-1,1H6a1,1,0,0,1-1-1V19A0,0,0,0,1,5,19Z"/><path class="cls-2" d="M11,32H3a3,3,0,0,1-3-3V21a3,3,0,0,1,3-3h8a3,3,0,0,1,3,3v8A3,3,0,0,1,11,32ZM3,20a1,1,0,0,0-1,1v8a1,1,0,0,0,1,1h8a1,1,0,0,0,1-1V21a1,1,0,0,0-1-1Z"/><path class="cls-2" d="M6,28H5a1,1,0,0,1,0-2H6a1,1,0,0,1,0,2Z"/><path class="cls-2" d="M23,27H17a1,1,0,0,1,0-2h6a1,1,0,0,0,1-1V21a1,1,0,0,1,2,0v3A3,3,0,0,1,23,27Z"/><path class="cls-2" d="M25,18a1,1,0,0,1-.74-.33C23.62,17,18,10.59,18,7A7,7,0,0,1,32,7c0,3.59-5.62,10-6.26,10.67A1,1,0,0,1,25,18ZM25,2a5,5,0,0,0-5,5c0,1.91,2.82,5.89,5,8.48,2.18-2.6,5-6.57,5-8.48A5,5,0,0,0,25,2Z"/><path class="cls-1" d="M25,9a2,2,0,1,1,2-2A2,2,0,0,1,25,9Zm0-2h0Zm0,0h0Zm0,0h0Zm0,0h0Zm0,0h0Zm0,0h0Zm0,0h0Zm0,0h0Z"/></g></svg>