<?xml version="1.0" ?><svg data-name="Layer 5" id="Layer_5" viewBox="0 0 32 32" xmlns="http://www.w3.org/2000/svg"><defs><style>.cls-1{fill:#fff;}.cls-2{fill:#ffbbbc;}.cls-3{fill:#361041;}.cls-4{fill:#f41870;}</style></defs><circle class="cls-1" cx="16.6" cy="16.26" r="12.93"/><polygon class="cls-1" points="7.34 17.73 3.99 18.47 2.03 20.17 2.29 21.83 4.68 22.41 5.21 24.11 6.66 24.21 8.02 23.43 9.8 23.81 10.84 23.15 9.88 21.49 8.32 19.25 7.34 17.73"/><polygon class="cls-1" points="22.34 10.02 23.6 12.06 24.92 14.48 26.66 14.14 26.89 12.76 29.36 12 28.91 9.56 30.09 7.3 28.65 6.16 25.89 6.58 22.34 10.02"/><polygon class="cls-2" points="6.8 16.56 8.51 19.61 12.73 25.52 14.9 25.34 23.66 20.03 26.13 17.84 25.46 14.83 24.47 13.75 22.16 9.55 20.66 7 17.72 7.66 11.81 10.6 7.4 13.12 6.43 14.86 6.8 16.56"/><path class="cls-2" d="M4.67,14.57c.27,0,.38-.81.47-1a3.63,3.63,0,0,1,1.62-1.71c.17-.1.83-.36.31-.59-.23-.11-.83.33-1,.45a4,4,0,0,0-1.52,2.16C4.5,14.08,4.31,14.59,4.67,14.57Z"/><path class="cls-2" d="M4.52,11.11l0,0c.12-.13,1.55-.87.57-.73a2.55,2.55,0,0,0-1.29,1s-.73,1.18-.21,1C3.91,12.28,4.24,11.29,4.52,11.11Z"/><path class="cls-2" d="M28.26,16.32c-.35,0-.18,1.07-.22,1.35a4,4,0,0,1-.7,1.62c-.12.18-.86.8-.64,1s.87-.62.91-.68l0,0a6,6,0,0,0,.62-1.16C28.38,18.14,28.79,16.32,28.26,16.32Z"/><path class="cls-2" d="M29.19,18.76a2.89,2.89,0,0,1-.48,1c-.11.16-.61.63-.6.8.05.65.93-.7,1-.88.25-.43.76-1.65.33-2.09S29.23,18.62,29.19,18.76Z"/><path class="cls-3" d="M30.39,7c-.5-1.31-2.26-1.61-3.53-1.29a6.66,6.66,0,0,0-4,2.76,4.22,4.22,0,0,0-1.42-1.8,3,3,0,0,0-2.52.08,44.86,44.86,0,0,0-5.66,2.65c-1.92,1.07-4.23,1.85-5.92,3.26a3.48,3.48,0,0,0-1.51,2.24,4.19,4.19,0,0,0,.61,2.37c-1.72.22-3.84.74-4.74,2.37a2.13,2.13,0,0,0,2.55,3.12,1.72,1.72,0,0,0,1.59,2.1,2.11,2.11,0,0,0,2-.93A1.58,1.58,0,0,0,9,24.46c.5.05.81-.21,1.25-.27s.21-.08.47.26.38.6.56.81c1.18,1.51,3.24.79,4.68.12a34.07,34.07,0,0,0,4.83-2.86c1.37-.93,2.8-1.77,4.15-2.73a3.88,3.88,0,0,0,1.84-2.15,4.37,4.37,0,0,0-.6-2.76,1.79,1.79,0,0,0,1.35-1.73A2.46,2.46,0,0,0,30,12a1.72,1.72,0,0,0-.51-2.24,2,2,0,0,0,1.09-2.2A1.48,1.48,0,0,0,30.39,7ZM20.8,8.15a3,3,0,0,1,.5.61h0c.45.65.84,1.32,1.25,2,.84,1.4,1.62,2.84,2.36,4.3a6.19,6.19,0,0,1,.54,1.49A27.81,27.81,0,0,0,22,15.91c-.44-.06-1.24-.09-1.48-.15a14,14,0,0,0-1.94-.14,7.85,7.85,0,0,0,.22-1.52,4.6,4.6,0,0,1,.69-2A16.76,16.76,0,0,0,20.8,8.15Zm-13,5.78c1-.67,2.06-1.22,3.09-1.81a26,26,0,0,1,2.86-1.53,26.49,26.49,0,0,0,3.63-1.87c3.09-1.87,3.07-.87,3.08-.61A4.45,4.45,0,0,1,20,9.63,29.61,29.61,0,0,1,18.59,13,1.19,1.19,0,0,0,17,12.64a2.85,2.85,0,0,0-1.14,2.45,2.5,2.5,0,0,0-2.53-.55,1.4,1.4,0,0,0-.9,1.85,19.53,19.53,0,0,1-4-.79C8.14,15.51,7.11,15.27,7,15S7.53,14.11,7.78,13.93ZM9.5,23.19a1.07,1.07,0,0,1-1-.2c-.29-.27-.14-.55-.31-.81s-.2-.28-.41,0-.27.72-.62,1c-.57.52-2.07.8-1.88-.37a2.15,2.15,0,0,1,.23-.69c.11-.21.48-.49.52-.72.12-.64-.56-.14-.86,0h0a2.84,2.84,0,0,1-2.26.24A1.16,1.16,0,0,1,2.67,20c.85-1.08,2.66-1.51,3.93-1.73a2.84,2.84,0,0,1,.66-.07c.34.07.28.13.45.49a14.24,14.24,0,0,0,1,1.87c.35.52.73,1,1.1,1.52.13.19.29.31.26.54S9.72,23.08,9.5,23.19Zm3,1.44A11.22,11.22,0,0,1,11,22.77c-.61-.86-1.24-1.7-1.84-2.56C8.33,19,7.06,17,7,15.42a9.49,9.49,0,0,0,3.95,1.25l.55.1.45,0a2.28,2.28,0,0,1,1.15.29c.38.21,1.79.88,1.81.88a28.65,28.65,0,0,0-2.3,6.15C12.55,24.29,12.5,24.46,12.46,24.63Zm13-7.59c0,1.61-2.55,2.71-3.67,3.5a40,40,0,0,1-6.51,3.93c-.45.19-2.11.92-2.55.36a6.42,6.42,0,0,1,.44-1.52c.18-.57.39-1.14.6-1.7s.46-1.19.71-1.78c.18-.41.41-1.38.76-1.64s1.5.28,2.1.2.64-.59.79-1.13l.18-.7c.13-.52.19-.49.75-.47s6.49.48,6.4.91v.05Zm1.67-7c.19.15.71.08,1,.19a1.19,1.19,0,0,1,.51.41c.7,1.07-.86,1.65-1.67,1.57-.25,0-.85-.39-1,0s.21.43.29.67A1,1,0,0,1,25.14,14c-.63-.14-1.12-1.69-1.45-2.25-.15-.26-.81-1-.79-1.32s.55-.74.66-.87a11.45,11.45,0,0,1,2-2.08c.76-.57,2.31-1.26,3.26-.72,1.22.68,0,2.12-.76,2.49C27.86,9.36,26.6,9.58,27.15,10Z"/><path class="cls-4" d="M17.08,17.55s-4.28-.83-3.76-1.94,3.18.65,3.18.65,0-3,1-2.88S17.08,17.55,17.08,17.55Z"/></svg>